<svg width="15" height="15" viewBox="0 0 15 15" fill="none" xmlns="http://www.w3.org/2000/svg">
<path d="M0.23999 5.3417C0.23999 3.47194 0.23999 2.53705 0.603872 1.82289C0.923953 1.1947 1.43469 0.683963 2.06288 0.363881C2.77704 0 3.71193 0 5.58169 0H9.65829C11.5281 0 12.463 0 13.1771 0.363881C13.8053 0.683963 14.316 1.1947 14.6361 1.82289C15 2.53705 15 3.47194 15 5.3417V9.4183C15 11.2881 15 12.223 14.6361 12.9371C14.316 13.5653 13.8053 14.076 13.1771 14.3961C12.463 14.76 11.5281 14.76 9.65829 14.76H5.58169C3.71193 14.76 2.77704 14.76 2.06288 14.3961C1.43469 14.076 0.923953 13.5653 0.603872 12.9371C0.23999 12.223 0.23999 11.2881 0.23999 9.4183V5.3417Z" fill="#330000"/>
<path d="M7.39257 9.27576H5.10535L4.63999 10.7585C4.62708 10.8135 4.57636 10.8526 4.52117 10.8498H3.36269C3.29663 10.8498 3.27353 10.8126 3.29338 10.7381L5.27367 4.88862C5.29349 4.82768 5.31331 4.75831 5.33308 4.68045C5.35901 4.54492 5.37225 4.40723 5.37272 4.26917C5.36703 4.22837 5.40287 4.19233 5.44199 4.19805H7.01635C7.06248 4.19805 7.08883 4.21498 7.09553 4.24882L9.34321 10.7483C9.36298 10.816 9.34321 10.8499 9.2838 10.8498H7.99657C7.95145 10.855 7.90833 10.824 7.89758 10.7788L7.39257 9.27576ZM5.46181 7.99618H7.02626C6.76923 7.11785 6.47914 6.25107 6.24403 5.36594C5.99037 6.2526 5.71362 7.13567 5.46181 7.99618Z" fill="#FF9A00"/>
<path d="M10.6798 5.27449C10.5788 5.27865 10.4781 5.26089 10.3842 5.22241C10.2904 5.18393 10.2055 5.12552 10.1352 5.05109C10.0651 4.97339 10.0106 4.8823 9.97488 4.78293C9.9392 4.68362 9.92301 4.57803 9.92723 4.47223C9.92364 4.36749 9.94162 4.26317 9.98 4.16604C10.0184 4.06892 10.0764 3.9812 10.1501 3.9086C10.223 3.83675 10.3091 3.78047 10.4035 3.74299C10.4978 3.70551 10.5984 3.68759 10.6995 3.69026C10.9372 3.69026 11.1237 3.76304 11.259 3.9086C11.3273 3.98424 11.3804 4.07296 11.4152 4.16968C11.45 4.26638 11.466 4.36923 11.462 4.47223C11.4661 4.5784 11.4494 4.68441 11.4128 4.78382C11.3763 4.88324 11.3206 4.97412 11.2491 5.05109C11.1744 5.12663 11.0852 5.18545 10.9873 5.22394C10.8893 5.26236 10.7846 5.2796 10.6798 5.27449ZM9.99655 10.7482V5.89399C9.99655 5.83305 10.0229 5.80258 10.0758 5.80258H11.2937C11.3464 5.80258 11.3728 5.83305 11.3729 5.89399V10.7482C11.3729 10.816 11.3465 10.8499 11.2937 10.8498H10.0857C10.0263 10.8498 9.99655 10.816 9.99655 10.7482Z" fill="#FF9A00"/>
</svg>
