<svg width="15" height="15" viewBox="0 0 15 15" fill="none" xmlns="http://www.w3.org/2000/svg">
<path d="M0 5.3417C0 3.47194 0 2.53705 0.363881 1.82289C0.683963 1.1947 1.1947 0.683963 1.82289 0.363881C2.53705 0 3.47194 0 5.3417 0H9.4183C11.2881 0 12.223 0 12.9371 0.363881C13.5653 0.683963 14.076 1.1947 14.3961 1.82289C14.76 2.53705 14.76 3.47194 14.76 5.3417V9.4183C14.76 11.2881 14.76 12.223 14.3961 12.9371C14.076 13.5653 13.5653 14.076 12.9371 14.3961C12.223 14.76 11.2881 14.76 9.4183 14.76H5.3417C3.47194 14.76 2.53705 14.76 1.82289 14.3961C1.1947 14.076 0.683963 13.5653 0.363881 12.9371C0 12.223 0 11.2881 0 9.4183V5.3417Z" fill="#00005B"/>
<path d="M3.16284 10.4352V3.79963C3.16284 3.75449 3.18134 3.72869 3.22452 3.72869C3.86196 3.72869 4.4991 3.69 5.13673 3.69C6.1713 3.69 7.29158 4.05058 7.68425 5.15383C7.77676 5.42467 7.82611 5.70195 7.82611 5.99214C7.82611 6.54669 7.70275 7.00452 7.456 7.36566C6.76681 8.3744 5.5722 8.35875 4.50136 8.35875V10.4287C4.50974 10.49 4.45851 10.519 4.40885 10.519H3.23686C3.18752 10.519 3.16284 10.4932 3.16284 10.4352ZM4.50753 4.97328V7.13994C4.93214 7.17168 5.37642 7.1751 5.78438 7.03678C6.23477 6.90436 6.48142 6.507 6.48142 6.03083C6.49396 5.62509 6.27704 5.23574 5.90778 5.08936C5.50473 4.91851 4.94263 4.90828 4.50753 4.97328Z" fill="#9999FF"/>
<path d="M8.66225 5.38312H9.74479C9.80446 5.3837 9.85808 5.42677 9.87384 5.48697C9.95317 5.6711 9.96298 5.89319 9.96324 6.09197C10.1489 5.86599 10.3727 5.67774 10.6236 5.53652C10.8928 5.37738 11.1978 5.29667 11.5069 5.30295C11.5583 5.29525 11.6037 5.34275 11.5963 5.39636V6.65259C11.5963 6.70114 11.5631 6.72528 11.497 6.72528C11.0388 6.69223 10.3255 6.80541 9.99255 7.18211V10.4485C9.99255 10.5108 9.96609 10.542 9.91311 10.542H8.75166C8.69462 10.5505 8.64428 10.4968 8.65234 10.4381V6.89139C8.65234 6.41617 8.6622 5.92661 8.59277 5.45582C8.58207 5.41249 8.62171 5.37221 8.66225 5.38312Z" fill="#9999FF"/>
</svg>
