<svg width="18" height="19" viewBox="0 0 18 19" fill="none" xmlns="http://www.w3.org/2000/svg">
<path fill-rule="evenodd" clip-rule="evenodd" d="M2 0.482208C0.895431 0.482208 0 1.37764 0 2.48221L0 16.4822C0 17.5868 0.89543 18.4822 2 18.4822L16 18.4822C17.1046 18.4822 18 17.5868 18 16.4822L18 2.48221C18 1.37764 17.1046 0.482208 16 0.482208L2 0.482208Z" fill="white"/>
<path fill-rule="evenodd" clip-rule="evenodd" d="M2 0.482208C0.895431 0.482208 0 1.37764 0 2.48221L0 16.4822C0 17.5868 0.89543 18.4822 2 18.4822L16 18.4822C17.1046 18.4822 18 17.5868 18 16.4822L18 2.48221C18 1.37764 17.1046 0.482208 16 0.482208L2 0.482208ZM12.401 7.82543C12.401 7.82543 11.428 10.7643 11.3485 11.007C11.1035 9.16514 10.8561 7.32353 10.6065 5.48221C8.9485 5.48221 8.062 6.61867 7.5935 7.81821L6.311 11.0143C6.3035 10.785 6.131 7.85288 6.131 7.85288C6.029 6.38319 4.631 5.48847 3.5 5.48847L4.8695 13.4822C6.6065 13.475 7.543 12.3453 8.0335 11.1457C8.0335 11.1457 9.0785 8.54631 9.1215 8.42834C9.129 8.53909 9.8715 13.4817 9.8715 13.4817C11.6155 13.4817 12.5525 12.4214 13.0565 11.2637L15.5 5.48895C13.7775 5.48895 12.8695 6.61915 12.401 7.82543Z" fill="#4353FF"/>
</svg>
