<svg width="17" height="18" viewBox="0 0 17 18" fill="none" xmlns="http://www.w3.org/2000/svg">
<path d="M1.12461 8.76794C1.12461 11.6906 2.82462 14.2079 5.28307 15.4045L1.76538 5.7668C1.34298 6.71094 1.12463 7.73361 1.12461 8.76794ZM8.5 16.1433C9.35655 16.1433 10.1804 15.9929 10.9519 15.7249L10.8996 15.6268L8.63076 9.41525L6.42076 15.8426C7.07462 16.0387 7.77424 16.1433 8.5 16.1433ZM9.51345 5.30909L12.1811 13.2403L12.92 10.7818C13.2339 9.7618 13.4758 9.02949 13.4758 8.39525C13.4758 7.47987 13.1489 6.85218 12.8742 6.36833C12.495 5.75371 12.1485 5.23718 12.1485 4.63564C12.1485 3.95564 12.6585 3.32794 13.3908 3.32794H13.4823C12.1233 2.08035 10.3448 1.38949 8.5 1.39256C7.2785 1.39233 6.07609 1.69576 5.00096 2.27556C3.92581 2.85536 3.01167 3.69333 2.34076 4.71409L2.81154 4.72718C3.58307 4.72718 4.77307 4.62909 4.77307 4.62909C5.17846 4.60949 5.22424 5.1914 4.82538 5.23718C4.82538 5.23718 4.42655 5.28949 3.97538 5.30909L6.66924 13.2991L8.28424 8.46064L7.13345 5.30909C6.8757 5.29488 6.61841 5.27307 6.36193 5.24371C5.96307 5.21756 6.00885 4.60949 6.40769 4.62909C6.40769 4.62909 7.62385 4.72718 8.34962 4.72718C9.12115 4.72718 10.3111 4.62909 10.3111 4.62909C10.71 4.60949 10.7623 5.1914 10.3635 5.23718C10.3635 5.23718 9.96462 5.28294 9.51345 5.30909ZM12.2073 15.1429C13.3231 14.4942 14.249 13.564 14.8927 12.4453C15.5364 11.3266 15.8752 10.0586 15.8754 8.76794C15.8754 7.4864 15.5485 6.28333 14.9731 5.23064C15.0899 6.38878 14.9146 7.55775 14.4631 8.63064L12.2073 15.1429ZM8.5 17.2679C6.24566 17.2679 4.08365 16.3724 2.4896 14.7783C0.895533 13.1843 0 11.0223 0 8.76794C0 6.51361 0.895533 4.3516 2.4896 2.75754C4.08365 1.16348 6.24566 0.267944 8.5 0.267944C10.7543 0.267944 12.9163 1.16348 14.5104 2.75754C16.1045 4.3516 17 6.51361 17 8.76794C17 11.0223 16.1045 13.1843 14.5104 14.7783C12.9163 16.3724 10.7543 17.2679 8.5 17.2679Z" fill="#126FC2"/>
</svg>
